# xmcd
#
# Track frame offsets:
#	225
#	13638
#	27692
#	39777
#	50963
#	63393
#	76560
#	87473
#	101289
#	114957
#	129293
#	142051
#	153749
#	167043
#	180429
#	192929
#	205707
#	218248
#	231093
#	244345
#	258211
#	269527
#	281118
#	295000
#	309316
#	320453
#	332756
#	343854
#
# Disc length: 4751 seconds
#
# Revision: 0
# Processed by: cddbd v1.5.2PL0 Copyright (c) Steve Scherf et al.
# Submitted via: audiograbber 1.83.01
#
DISCID=97128c1c
DTITLE=Various Artist - VA - 78 RPM R&B Vocal Groups - vol. 1
DYEAR=1900
DGENRE=Vocal Harmony
TTITLE0=Quintones - Fool That I Am (Vocalion, 1939)
TTITLE1=Four Tones - Someone's Rocking My Dreamboat (Bluebird, 1942)
TTITLE2=Madeline Green and the Three Varieties - It Had To Be You (Bluebird, 1944
TTITLE2=)
TTITLE3=Coleman Brothers - Get Away, Mr. Satan, Get Away (Decca, 1945)
TTITLE4=Four Blues - Bell Bottom Trousers (DeLuxe, 1945)
TTITLE5=Velvetones - Reverse the Charges (Sonora, 1946)
TTITLE6=Ginger Snaps - I Left My Heart in Mississippi (RCA, 1946)
TTITLE7=Three Bits of Rhythm - I Used To Work in Chicago (Modern Music, 1946)
TTITLE8=Thelma Carpenter and the Deep River Boys - Hurry Home (Majestic, 1946)
TTITLE9=Bill Johnson and his Musical Notes - Let's Be Sweethearts Again (RCA, 194
TTITLE9=7)
TTITLE10=Five Bars - I'm All Dressed Up With a Broken Heart (Bullet, 1947)
TTITLE11=Four of Us - Lift Up the Latch (Modern, 1947)
TTITLE12=Commanders - I'd Like To Know You Better Than I Do (Modern, 1948)
TTITLE13=Dixiaires - Until You Say You Are Mine (Continental, 1948)
TTITLE14=Four Knights - Wrapped Up in a Dream (Coral, 1949)
TTITLE15=Dixiaires - Joe Lewis is a Fightin' Man (Sittin' In With, 1949)
TTITLE16=Colemans - I Don't Mind Being Alone (Regal, 1950)
TTITLE17=Robins - There Ain't No Use Beggin' (Savoy, 1950)
TTITLE18=Shadows - I'm Crying 'Cause You're Laughing at Me (Lee, 1950)
TTITLE19=Billy Bunn and his Buddies - I'm Afraid (RCA, 1951)
TTITLE20=Sultans - Don't Be Angry (Jubilee, 1952)
TTITLE21=Shadows - No Use (Decca, 1953)
TTITLE22=Original Jubalaires - Waiting All My Life for You (Crown, 1954)
TTITLE23=Maples - I Must Forget You (Blue Lake, 1954)
TTITLE24=Jones Boys - Jones Bones (S&G, 1954)
TTITLE25=Deep River Boys - My Castle On the Nile (HMV, 1955)
TTITLE26=Midnighters - Why Are We Apart (Federal, 1955)
TTITLE27=Charioteers - Thanks for Yesterday (Tuxedo, 1955)
EXTD=
EXTT0=
EXTT1=
EXTT2=
EXTT3=
EXTT4=
EXTT5=
EXTT6=
EXTT7=
EXTT8=
EXTT9=
EXTT10=
EXTT11=
EXTT12=
EXTT13=
EXTT14=
EXTT15=
EXTT16=
EXTT17=
EXTT18=
EXTT19=
EXTT20=
EXTT21=
EXTT22=
EXTT23=
EXTT24=
EXTT25=
EXTT26=
EXTT27=
PLAYORDER=
